PathFileType	4	(X/Y/Z)	Run_300 01
DataRate	CameraRate	NumFrames	NumMarkers	Units	OrigDataRate	OrigDataStartFrame	OrigNumFrames
120	120	4	42	mm	120	15	128
Frame#	Time	LASI			RASI			LPSI			RPSI			RTH1			RTH3			LTH1			LTH2			LTH3			RTB1			RTB2			RTB3			LTB1			LTB2			LTB3			RCAL			RTOE			RMT5			LCAL			LTOE			LMT5			LACR			RACR			CLAV			C7			RUA1			RUA2			RUA3			RLEL			RMEL			LUA1			LUA2			LUA3			LLEL			LMEL			RFAsuperior			RFAradius			RFAulna			LFAsuperior			LFAradius			LFAulna			RTH2		
		X1	Y1	Z1	X2	Y2	Z2	X3	Y3	Z3	X4	Y4	Z4	X5	Y5	Z5	X6	Y6	Z6	X7	Y7	Z7	X8	Y8	Z8	X9	Y9	Z9	X10	Y10	Z10	X11	Y11	Z11	X12	Y12	Z12	X13	Y13	Z13	X14	Y14	Z14	X15	Y15	Z15	X16	Y16	Z16	X17	Y17	Z17	X18	Y18	Z18	X19	Y19	Z19	X20	Y20	Z20	X21	Y21	Z21	X22	Y22	Z22	X23	Y23	Z23	X24	Y24	Z24	X25	Y25	Z25	X26	Y26	Z26	X27	Y27	Z27	X28	Y28	Z28	X29	Y29	Z29	X30	Y30	Z30	X31	Y31	Z31	X32	Y32	Z32	X33	Y33	Z33	X34	Y34	Z34	X35	Y35	Z35	X36	Y36	Z36	X37	Y37	Z37	X38	Y38	Z38	X39	Y39	Z39	X40	Y40	Z40	X41	Y41	Z41	X42	Y42	Z42	

15	  0.125000	1084.055001	1039.846491	-436.979255	1061.439896	1053.512361	-209.250385	917.849132	1094.540068	-395.699816	904.097227	1092.582221	-296.940698	1024.615907	894.178748	-150.836702	1113.784803	669.119712	-194.641604	984.424823	873.957509	-499.579311	1020.449658	759.008443	-460.216821	911.831130	661.287126	-455.757957	1241.117281	471.350336	-248.968782	1197.327399	401.050833	-195.857218	1265.993736	293.619393	-258.445526	807.374803	444.875816	-391.227962	708.926703	423.514553	-448.769617	634.106080	352.363654	-386.299380	1180.012919	140.252341	-306.383546	1392.248193	141.642419	-301.541388	1369.877052	 86.977697	-213.379910	491.639169	400.929289	-403.429537	515.523802	213.813741	-316.269218	480.364068	187.206583	-415.803628	1082.583503	1535.334701	-498.347354	1009.117722	1519.446118	-148.023111	1106.757842	1476.554189	-282.618314	1008.642967	1560.713027	-336.434012	950.407792	1469.863509	-109.169729	921.490924	1385.419446	-125.486079	845.728434	1424.633479	-148.409489	764.211040	1339.199935	-137.844109	776.754369	1334.974289	-204.169585	1064.610120	1465.877850	-559.883913	996.825205	1420.697605	-561.732197	1057.515096	1366.688879	-595.084057	989.557203	1267.755906	-641.856191	933.139470	1266.341513	-592.922238	811.776713	1267.465990	-98.214835	885.678552	1095.528780	-84.171732	828.253358	1074.724369	-112.324853	1066.528536	1275.767400	-605.061903	1166.358085	1327.821040	-451.710371	1178.775843	1261.531177	-445.081611	1140.706624	768.477821	-174.346794	
16	  0.133333	1084.631609	1037.929670	-436.991687	1061.008600	1051.024452	-209.407470	917.422436	1090.277762	-396.222244	903.548335	1087.572065	-297.629345	1025.340225	891.611383	-150.086475	1114.299851	666.803492	-195.517544	990.293276	869.551718	-498.931303	1028.332999	755.474032	-457.611605	922.257987	655.394543	-456.356284	1238.773293	466.747151	-251.598284	1194.620492	397.176218	-197.733639	1259.957707	288.341565	-261.020565	813.859675	442.613696	-391.439982	714.111182	427.568568	-449.263401	635.367427	360.215293	-387.664892	1170.567504	136.556727	-307.762951	1382.939336	134.855012	-304.449786	1360.405892	 79.576716	-216.420268	495.398596	416.457190	-404.765359	510.934409	228.033026	-318.457224	473.617890	203.799872	-417.903035	1081.418208	1532.038652	-497.020435	1009.799812	1514.871179	-146.203184	1106.627907	1472.813978	-281.726810	1008.402074	1557.531160	-334.452437	951.417181	1464.197417	-106.617442	922.813615	1379.577012	-124.037826	847.195832	1418.571369	-145.800090	765.946074	1332.742241	-135.271891	778.130734	1328.908531	-201.898076	1062.078904	1463.337686	-558.709157	993.729193	1418.815260	-559.654896	1053.689750	1364.400586	-594.277484	984.455229	1266.519522	-640.881936	928.498062	1265.844192	-590.978109	814.653023	1260.953766	-96.820726	889.232126	1089.347108	-84.334403	831.814500	1068.269945	-112.614518	1061.712359	1271.597379	-604.434810	1164.535802	1317.121064	-450.385099	1174.980319	1250.342695	-445.990255	1141.673677	767.047058	-173.983419	
17	  0.141667	1085.136859	1035.466437	-436.968070	1060.484920	1048.204502	-209.411969	917.051339	1085.378862	-396.768571	903.031002	1082.218030	-298.407042	1026.140468	888.773024	-149.630554	1114.876002	664.269555	-196.351046	995.917551	864.868735	-498.507381	1035.931808	751.754018	-455.884219	932.246379	649.411739	-456.809495	1236.123570	461.539786	-254.140062	1191.464031	393.062581	-199.277380	1253.368694	282.571054	-263.202277	820.935193	440.132915	-391.824060	720.020738	431.447739	-449.852590	637.699801	367.776369	-389.035576	1159.954056	132.922181	-308.136888	1371.973378	126.653442	-308.551349	1349.755278	 71.148551	-219.805739	500.548941	431.669833	-405.734842	507.374590	241.913026	-321.001475	468.110405	220.457298	-420.305614	1080.245522	1528.289161	-495.689779	1010.492470	1509.813425	-144.381833	1106.503404	1468.583443	-280.869643	1008.135587	1553.928611	-332.531822	952.457902	1458.007117	-104.143409	924.330338	1373.161772	-122.434538	848.603023	1411.788164	-143.053118	767.864621	1325.511411	-132.446440	779.527585	1322.158835	-199.407055	1059.527618	1460.379504	-557.463407	990.581537	1416.519088	-557.505503	1049.687429	1361.676197	-593.414772	979.080348	1264.924865	-639.823267	923.643618	1264.956060	-589.071482	817.722429	1253.674078	-95.303132	893.132231	1082.444567	-84.469589	835.605780	1061.192486	-112.796079	1056.583732	1267.035811	-603.792776	1162.525608	1305.488937	-449.353043	1170.819515	1238.368817	-447.260911	1142.890755	765.507913	-173.818699	
18	  0.150000	1085.553181	1032.088839	-436.930991	1059.841137	1044.814924	-209.172285	916.737503	1079.415045	-397.365805	902.575461	1076.294135	-299.241730	1027.120513	885.488999	-149.704683	1115.459977	661.299558	-197.143253	1001.128706	859.709461	-498.405339	1042.969385	747.707968	-455.549211	941.504453	643.220040	-457.049926	1232.990208	455.366100	-256.506516	1187.680642	388.470927	-200.282338	1245.732417	275.969986	-264.872808	828.935159	437.269845	-392.466994	727.100681	434.968721	-450.557943	641.721924	374.853041	-390.410298	1147.232798	129.355976	-307.235599	1358.231656	116.415399	-314.091053	1336.910797	 61.782770	-223.313363	507.876034	446.289426	-406.134365	505.571952	255.211885	-324.061030	464.692986	237.146725	-423.167989	1079.046467	1523.790146	-494.368387	1011.196386	1503.962948	-142.568436	1106.380611	1463.561691	-280.055538	1007.839329	1549.627932	-330.704640	953.538744	1450.964256	-101.808325	926.093941	1365.834858	-120.602097	849.905257	1403.845790	-140.078897	770.076620	1317.027552	-129.214816	780.959878	1314.270798	-196.572900	1056.935709	1456.719037	-556.134516	987.357115	1413.555868	-555.281152	1045.419298	1358.229921	-592.441580	973.280242	1262.752432	-638.638176	918.467795	1263.440359	-587.157910	821.083359	1245.151326	-93.553844	897.593819	1074.380558	-84.574549	839.876572	1053.066453	-112.832859	1050.954618	1261.834162	-603.103080	1160.206087	1292.380908	-448.807470	1166.058450	1225.157783	-449.205070	1144.439704	763.636343	-174.059277	
